<svg width="64" height="75" viewBox="0 0 64 75" fill="none" xmlns="http://www.w3.org/2000/svg">
<path d="M52.4476 50.8672C46.7319 51.3231 40.8468 50.61 34.7922 48.7279C53.1665 50.458 59.712 48.2487 54.4288 42.0999C62.6575 46.7407 61.9971 49.6631 52.4476 50.8672Z" fill="#040E4A"/>
<path d="M37.0889 56.9342C52.0268 57.7525 57.1931 55.9348 52.5878 51.481C57.5204 53.854 58.5314 55.9464 55.621 57.7584C51.5534 60.2658 41.3844 58.2493 37.0889 56.9342Z" fill="#040E4A"/>
<path d="M37.5272 63.2291C49.2975 64.4916 53.7508 63.3226 50.8871 59.7222C54.7443 61.5341 55.3404 63.1297 52.6755 64.5091C49.1514 66.3152 41.1039 64.5968 37.5272 63.2291Z" fill="#040E4A"/>
<path d="M38.579 66.8412C44.4116 70.1494 48.8065 70.0092 51.7636 66.4204C51.8922 68.3258 50.8402 70.0442 48.6077 71.5756C43.7512 74.9422 41.6473 71.3126 38.579 66.8412Z" fill="#040E4A"/>
<path d="M39.1577 17.2007C55.6618 8.63211 62.4353 16.7214 59.4781 41.4686C64.5042 29.2061 65.1236 18.7905 61.3366 10.2219C56.182 1.29093 46.1182 1.48382 31.1453 10.8006C23.2906 3.92698 15.471 2.3021 7.6865 5.92593C-12.0027 16.4292 11.193 70.4709 21.064 74.6442C28.568 77.818 29.2517 53.4097 29.953 50.1132C30.8881 45.7646 32.5596 44.7009 34.9674 46.9219C31.6362 41.8135 29.129 42.9474 27.4459 50.3236C26.7796 53.1993 24.588 72.8732 20.2399 67.6479C12.3853 58.2142 2.56695 28.984 8.77353 18.095C12.5255 11.537 19.5152 11.6247 29.7426 18.358C41.8519 26.2369 49.6715 28.908 53.2014 26.3713C44.0844 21.672 39.4032 18.6152 39.1577 17.2007Z" fill="#C61C11"/>
<path d="M25.6926 50.7267C28.4277 41.0827 30.1108 35.8573 35.8616 45.9924C32.0394 32.3504 25.4997 37.4881 25.6926 50.7267Z" fill="#C61C11"/>
<path d="M44.3123 3.24302C51.7812 -3.94618 64.2821 1.62983 63.9314 12.0103C61.284 3.0326 54.3586 -1.24585 44.3123 3.24302Z" fill="#C61C11"/>
</svg>
