<svg width="23" height="23" viewBox="0 0 23 23" fill="none" xmlns="http://www.w3.org/2000/svg">
<g clip-path="url(#clip0_2714_1586)">
<path d="M21.0833 3.84281C20.125 4.31239 19.1858 4.5031 18.2083 4.79156C17.134 3.57927 15.5413 3.51218 14.0108 4.08527C12.4804 4.65835 11.4779 6.05943 11.5 7.66656V8.62489C8.3902 8.70443 5.62061 7.28802 3.83332 4.79156C3.83332 4.79156 -0.174427 11.9148 7.66666 15.3332C5.87266 16.5283 4.08345 17.3342 1.91666 17.2499C5.08682 18.9778 8.54162 19.5719 11.5326 18.7037C14.9634 17.707 17.7828 15.1358 18.8648 11.2843C19.1875 10.1129 19.3478 8.90267 19.3411 7.68764C19.3392 7.44902 20.7882 5.03114 21.0833 3.84185V3.84281Z" stroke="#111111" stroke-width="1.5" stroke-linecap="round" stroke-linejoin="round"/>
</g>
<defs>
<clipPath id="clip0_2714_1586">
<rect width="23" height="23" fill="white"/>
</clipPath>
</defs>
</svg>
