<svg width="23" height="23" viewBox="0 0 23 23" fill="none" xmlns="http://www.w3.org/2000/svg">
<g clip-path="url(#clip0_2714_1589)">
<path d="M15.3333 3.8335H7.66668C5.54959 3.8335 3.83334 5.54974 3.83334 7.66683V15.3335C3.83334 17.4506 5.54959 19.1668 7.66668 19.1668H15.3333C17.4504 19.1668 19.1667 17.4506 19.1667 15.3335V7.66683C19.1667 5.54974 17.4504 3.8335 15.3333 3.8335Z" stroke="#111111" stroke-width="1.5" stroke-linecap="round" stroke-linejoin="round"/>
<path d="M11.5 14.375C13.0878 14.375 14.375 13.0878 14.375 11.5C14.375 9.91218 13.0878 8.625 11.5 8.625C9.91218 8.625 8.625 9.91218 8.625 11.5C8.625 13.0878 9.91218 14.375 11.5 14.375Z" stroke="#111111" stroke-width="1.5" stroke-linecap="round" stroke-linejoin="round"/>
<path d="M15.8125 7.1875V7.1885" stroke="#111111" stroke-width="1.5" stroke-linecap="round" stroke-linejoin="round"/>
</g>
<defs>
<clipPath id="clip0_2714_1589">
<rect width="23" height="23" fill="white"/>
</clipPath>
</defs>
</svg>
