<svg width="21" height="23" viewBox="0 0 21 23" fill="none" xmlns="http://www.w3.org/2000/svg">
<g clip-path="url(#clip0_2714_1622)">
<path d="M10.1436 13.4165C11.5441 13.4165 12.6795 12.1293 12.6795 10.5415C12.6795 8.95369 11.5441 7.6665 10.1436 7.6665C8.74303 7.6665 7.60767 8.95369 7.60767 10.5415C7.60767 12.1293 8.74303 13.4165 10.1436 13.4165Z" stroke="#444444" stroke-width="1.5" stroke-linecap="round" stroke-linejoin="round"/>
<path d="M14.9255 15.9632L11.3389 20.0294C11.0219 20.3884 10.5921 20.5901 10.144 20.5901C9.69597 20.5901 9.26621 20.3884 8.94921 20.0294L5.36176 15.9632C4.41606 14.8909 3.77204 13.5249 3.51114 12.0377C3.25024 10.5505 3.38418 9.00903 3.89602 7.60816C4.40786 6.20728 5.27461 5.00993 6.38667 4.16753C7.49874 3.32512 8.80616 2.87549 10.1436 2.87549C11.4811 2.87549 12.7885 3.32512 13.9006 4.16753C15.0126 5.00993 15.8794 6.20728 16.3912 7.60816C16.9031 9.00903 17.037 10.5505 16.7761 12.0377C16.5152 13.5249 15.8712 14.8909 14.9255 15.9632V15.9632Z" stroke="#444444" stroke-width="1.5" stroke-linecap="round" stroke-linejoin="round"/>
</g>
<defs>
<clipPath id="clip0_2714_1622">
<rect width="20.2872" height="23" fill="white"/>
</clipPath>
</defs>
</svg>
