<svg width="55" height="64" viewBox="0 0 55 64" fill="none" xmlns="http://www.w3.org/2000/svg">
<path d="M45.1154 43.4486C40.1988 43.838 35.1364 43.2289 29.9282 41.6214C45.7337 43.0991 51.3642 41.212 46.8196 35.96C53.8979 39.9239 53.3298 42.4202 45.1154 43.4486Z" fill="#040E4A"/>
<path d="M31.9037 48.6306C44.7533 49.3295 49.1974 47.7769 45.2359 43.9727C49.4789 45.9996 50.3486 47.7869 47.845 49.3345C44.3461 51.4763 35.5987 49.7539 31.9037 48.6306Z" fill="#040E4A"/>
<path d="M32.2809 54.0072C42.4057 55.0855 46.2364 54.0871 43.7731 51.0117C47.0911 52.5594 47.6038 53.9223 45.3114 55.1005C42.28 56.6432 35.3575 55.1754 32.2809 54.0072Z" fill="#040E4A"/>
<path d="M33.1857 57.0928C38.2028 59.9186 41.9833 59.7987 44.5271 56.7334C44.6377 58.3609 43.7328 59.8287 41.8124 61.1367C37.6348 64.0123 35.825 60.912 33.1857 57.0928Z" fill="#040E4A"/>
<path d="M33.6835 14.6922C47.8803 7.37329 53.7069 14.2828 51.1631 35.4207C55.4865 24.9466 56.0194 16.0501 52.7617 8.73122C48.3277 1.1028 39.6709 1.26756 26.7912 9.22548C20.0346 3.35439 13.3082 1.96649 6.61193 5.06179C-10.3248 14.0332 9.62826 60.1931 18.1192 63.7577C24.5742 66.4686 25.1623 45.6202 25.7656 42.8045C26.57 39.0901 28.0077 38.1815 30.079 40.0786C27.2134 35.7153 25.0568 36.6838 23.6089 42.9842C23.0358 45.4405 21.1506 62.245 17.4104 57.7818C10.6538 49.724 2.20809 24.7569 7.54699 15.456C10.7745 9.85452 16.787 9.9294 25.5846 15.6807C36.001 22.4105 42.7274 24.692 45.7639 22.5253C37.9214 18.5114 33.8946 15.9003 33.6835 14.6922Z" fill="#C61C11"/>
<path d="M22.1008 43.3287C24.4536 35.0912 25.9014 30.628 30.8482 39.2848C27.5604 27.6325 21.9349 32.0209 22.1008 43.3287Z" fill="#C61C11"/>
<path d="M38.1174 2.77003C44.5421 -3.37064 55.2954 1.39213 54.9937 10.2587C52.7164 2.59031 46.7591 -1.06415 38.1174 2.77003Z" fill="#C61C11"/>
</svg>
