<svg width="23" height="23" viewBox="0 0 23 23" fill="none" xmlns="http://www.w3.org/2000/svg">
<g clip-path="url(#clip0_2714_1608)">
<path d="M16.2917 16.2917H18.2083C18.7167 16.2917 19.2042 16.0897 19.5636 15.7303C19.9231 15.3708 20.125 14.8833 20.125 14.375V10.5417C20.125 10.0333 19.9231 9.54582 19.5636 9.18638C19.2042 8.82693 18.7167 8.625 18.2083 8.625H4.79167C4.28334 8.625 3.79582 8.82693 3.43638 9.18638C3.07693 9.54582 2.875 10.0333 2.875 10.5417V14.375C2.875 14.8833 3.07693 15.3708 3.43638 15.7303C3.79582 16.0897 4.28334 16.2917 4.79167 16.2917H6.70833" stroke="#444444" stroke-width="1.5" stroke-linecap="round" stroke-linejoin="round"/>
<path d="M16.2917 8.625V4.79167C16.2917 4.28334 16.0898 3.79582 15.7303 3.43638C15.3709 3.07693 14.8834 2.875 14.375 2.875H8.62504C8.11671 2.875 7.6292 3.07693 7.26975 3.43638C6.91031 3.79582 6.70837 4.28334 6.70837 4.79167V8.625" stroke="#444444" stroke-width="1.5" stroke-linecap="round" stroke-linejoin="round"/>
<path d="M14.375 12.4585H8.62504C7.56649 12.4585 6.70837 13.3166 6.70837 14.3752V18.2085C6.70837 19.267 7.56649 20.1252 8.62504 20.1252H14.375C15.4336 20.1252 16.2917 19.267 16.2917 18.2085V14.3752C16.2917 13.3166 15.4336 12.4585 14.375 12.4585Z" stroke="#444444" stroke-width="1.5" stroke-linecap="round" stroke-linejoin="round"/>
</g>
<defs>
<clipPath id="clip0_2714_1608">
<rect width="23" height="23" fill="white"/>
</clipPath>
</defs>
</svg>
