<svg width="158" height="100" viewBox="0 0 158 100" fill="none" xmlns="http://www.w3.org/2000/svg">
<path d="M99.4396 50.8672C93.7239 51.3231 87.8387 50.61 81.7841 48.7279C100.158 50.458 106.704 48.2487 101.421 42.0999C109.649 46.7407 108.989 49.6631 99.4396 50.8672Z" fill="#040E4A"/>
<path d="M84.0809 56.9342C99.0187 57.7525 104.185 55.9348 99.5798 51.481C104.512 53.854 105.523 55.9464 102.613 57.7584C98.5454 60.2658 88.3764 58.2493 84.0809 56.9342Z" fill="#040E4A"/>
<path d="M84.5192 63.2291C96.2895 64.4916 100.743 63.3226 97.8791 59.7222C101.736 61.5341 102.332 63.1297 99.6674 64.5091C96.1433 66.3152 88.0958 64.5968 84.5192 63.2291Z" fill="#040E4A"/>
<path d="M85.571 66.8412C91.4035 70.1494 95.7984 70.0092 98.7556 66.4204C98.8842 68.3258 97.8322 70.0442 95.5997 71.5756C90.7431 74.9422 88.6392 71.3126 85.571 66.8412Z" fill="#040E4A"/>
<path d="M86.1497 17.2007C102.654 8.63211 109.427 16.7214 106.47 41.4686C111.496 29.2061 112.116 18.7905 108.329 10.2219C103.174 1.29093 93.1101 1.48382 78.1372 10.8006C70.2825 3.92698 62.463 2.3021 54.6784 5.92593C34.9892 16.4292 58.185 70.4709 68.0559 74.6442C75.5599 77.818 76.2437 53.4097 76.945 50.1132C77.8801 45.7646 79.5515 44.7009 81.9593 46.9219C78.6281 41.8135 76.1209 42.9474 74.4378 50.3236C73.7716 53.1993 71.58 72.8732 67.2319 67.6479C59.3772 58.2142 49.5589 28.984 55.7655 18.095C59.5175 11.537 66.5072 11.6247 76.7346 18.358C88.8438 26.2369 96.6634 28.908 100.193 26.3713C91.0763 21.672 86.3951 18.6152 86.1497 17.2007Z" fill="#C61C11"/>
<path d="M72.6845 50.7267C75.4196 41.0827 77.1028 35.8573 82.8535 45.9924C79.0314 32.3504 72.4917 37.4881 72.6845 50.7267Z" fill="#C61C11"/>
<path d="M91.3043 3.24302C98.7732 -3.94618 111.274 1.62983 110.923 12.0103C108.276 3.0326 101.351 -1.24585 91.3043 3.24302Z" fill="#C61C11"/>
<path d="M7.52877 97.7782H3.08504L2.34974 99.9042H0L4.01215 88.7309H6.61764L10.6298 99.9042H8.26406L7.52877 97.7782ZM6.92135 95.9879L5.3069 91.3204L3.69245 95.9879H6.92135Z" fill="#040E4A"/>
<path d="M14.4153 98.018H19.4345V99.9042H11.8258V98.1778L16.813 90.6331H11.8258V88.7469H19.4345V90.4732L14.4153 98.018Z" fill="#040E4A"/>
<path d="M28.9321 88.7469V90.5532H25.9589V99.9042H23.7211V90.5532H20.7479V88.7469H28.9321Z" fill="#040E4A"/>
<path d="M32.8027 90.5532V93.3505H36.5591V95.1248H32.8027V98.0819H37.0387V99.9042H30.5649V88.7309H37.0387V90.5532H32.8027Z" fill="#040E4A"/>
<path d="M38.5289 94.3095C38.5289 93.2119 38.774 92.2315 39.2642 91.3684C39.765 90.4945 40.4417 89.8179 41.2942 89.3383C42.1574 88.8481 43.1218 88.603 44.1874 88.603C45.4342 88.603 46.5265 88.9227 47.4643 89.5621C48.4021 90.2015 49.0574 91.086 49.4304 92.2156H46.8569C46.6011 91.6827 46.2388 91.2831 45.7699 91.0167C45.3117 90.7503 44.7789 90.6171 44.1715 90.6171C43.5214 90.6171 42.9406 90.7716 42.4291 91.0806C41.9283 91.379 41.534 91.8053 41.2463 92.3594C40.9692 92.9136 40.8307 93.5636 40.8307 94.3095C40.8307 95.0448 40.9692 95.6949 41.2463 96.2597C41.534 96.8138 41.9283 97.2454 42.4291 97.5544C42.9406 97.8528 43.5214 98.002 44.1715 98.002C44.7789 98.002 45.3117 97.8688 45.7699 97.6024C46.2388 97.3253 46.6011 96.9204 46.8569 96.3876H49.4304C49.0574 97.5278 48.4021 98.4176 47.4643 99.057C46.5372 99.6857 45.4449 100 44.1874 100C43.1218 100 42.1574 99.7603 41.2942 99.2808C40.4417 98.7906 39.765 98.1139 39.2642 97.2507C38.774 96.3876 38.5289 95.4072 38.5289 94.3095Z" fill="#040E4A"/>
<path d="M60.5969 88.7469V99.9042H58.3591V95.1567H53.5797V99.9042H51.3418V88.7469H53.5797V93.3345H58.3591V88.7469H60.5969Z" fill="#040E4A"/>
<path d="M70.5087 88.7469C71.6809 88.7469 72.7092 88.976 73.5937 89.4342C74.4888 89.8925 75.1762 90.5478 75.6557 91.4003C76.1459 92.2422 76.391 93.2226 76.391 94.3415C76.391 95.4604 76.1459 96.4408 75.6557 97.2827C75.1762 98.1139 74.4888 98.7586 73.5937 99.2168C72.7092 99.6751 71.6809 99.9042 70.5087 99.9042H66.6084V88.7469H70.5087ZM70.4287 98.002C71.6009 98.002 72.5067 97.6823 73.1461 97.0429C73.7855 96.4035 74.1052 95.5031 74.1052 94.3415C74.1052 93.18 73.7855 92.2742 73.1461 91.6241C72.5067 90.9634 71.6009 90.6331 70.4287 90.6331H68.8463V98.002H70.4287Z" fill="#040E4A"/>
<path d="M80.304 90.5532V93.3505H84.0604V95.1248H80.304V98.0819H84.5399V99.9042H78.0662V88.7309H84.5399V90.5532H80.304Z" fill="#040E4A"/>
<path d="M96.1164 99.9042H93.8786L88.8115 92.2475V99.9042H86.5736V88.7309H88.8115L93.8786 96.4035V88.7309H96.1164V99.9042Z" fill="#040E4A"/>
<path d="M105.921 88.7469V90.5532H102.947V99.9042H100.71V90.5532H97.7365V88.7469H105.921Z" fill="#040E4A"/>
<path d="M114.395 97.7782H109.951L109.216 99.9042H106.866L110.878 88.7309H113.484L117.496 99.9042H115.13L114.395 97.7782ZM113.787 95.9879L112.173 91.3204L110.559 95.9879H113.787Z" fill="#040E4A"/>
<path d="M121.233 98.1299H124.91V99.9042H118.996V88.7469H121.233V98.1299Z" fill="#040E4A"/>
<path d="M132.379 98.1299H136.055V99.9042H130.141V88.7469H132.379V98.1299Z" fill="#040E4A"/>
<path d="M144.319 97.7782H139.876L139.14 99.9042H136.79L140.803 88.7309H143.408L147.42 99.9042H145.055L144.319 97.7782ZM143.712 95.9879L142.097 91.3204L140.483 95.9879H143.712Z" fill="#040E4A"/>
<path d="M155.25 94.1817C155.879 94.2989 156.395 94.6133 156.8 95.1248C157.205 95.6363 157.408 96.2224 157.408 96.8831C157.408 97.4798 157.259 98.0073 156.96 98.4656C156.673 98.9131 156.252 99.2648 155.697 99.5205C155.143 99.7763 154.488 99.9042 153.731 99.9042H148.92V88.7469H153.524C154.28 88.7469 154.93 88.8694 155.474 89.1145C156.028 89.3596 156.443 89.7006 156.72 90.1376C157.008 90.5745 157.152 91.07 157.152 91.6241C157.152 92.2742 156.976 92.8176 156.625 93.2546C156.284 93.6915 155.825 94.0005 155.25 94.1817ZM151.158 93.3505H153.204C153.737 93.3505 154.147 93.2332 154.435 92.9988C154.722 92.7537 154.866 92.4074 154.866 91.9598C154.866 91.5122 154.722 91.1659 154.435 90.9208C154.147 90.6757 153.737 90.5532 153.204 90.5532H151.158V93.3505ZM153.412 98.0819C153.955 98.0819 154.376 97.954 154.674 97.6983C154.983 97.4425 155.138 97.0802 155.138 96.6113C155.138 96.1318 154.978 95.7588 154.658 95.4924C154.339 95.2153 153.907 95.0768 153.364 95.0768H151.158V98.0819H153.412Z" fill="#040E4A"/>
</svg>
