<svg width="30" height="30" viewBox="0 0 30 30" fill="none" xmlns="http://www.w3.org/2000/svg">
<path d="M24.4443 20.0053L21.4075 17.8836C21.0104 17.6066 20.5462 17.4606 20.0649 17.4606C19.2995 17.4606 18.581 17.836 18.1434 18.464L17.4384 19.4743C16.257 18.6819 14.9386 17.5755 13.6818 16.3189C12.4252 15.0624 11.3191 13.744 10.5269 12.5625L11.5367 11.8576C12.0515 11.4991 12.3953 10.9622 12.5044 10.346C12.6134 9.73035 12.4761 9.10825 12.1172 8.59326L9.9959 5.55646C9.55232 4.922 8.83661 4.54297 8.08107 4.54297C7.81923 4.54297 7.56243 4.5892 7.31798 4.67938C7.04035 4.78192 6.78171 4.90781 6.52811 5.06711L6.1088 5.36237C6.00397 5.44385 5.90647 5.53311 5.81308 5.6265C5.30153 6.13782 4.93852 6.7851 4.73368 7.55048C3.85958 10.8271 6.02503 15.782 10.122 19.879C13.5626 23.3195 17.6959 25.4568 20.9088 25.4573C21.459 25.4573 21.9779 25.3932 22.4507 25.2668C23.2161 25.0622 23.8634 24.6992 24.3752 24.1874C24.4681 24.0945 24.5569 23.997 24.6521 23.8739L24.9476 23.4523C25.092 23.2216 25.2177 22.9629 25.3216 22.6832C25.6789 21.7173 25.3182 20.616 24.4443 20.0053Z" fill="#C61C11"/>
</svg>
