<svg width="23" height="23" viewBox="0 0 23 23" fill="none" xmlns="http://www.w3.org/2000/svg">
<g clip-path="url(#clip0_119_377)">
<path d="M2.875 20.1249L4.45625 16.4833C3.24651 14.766 2.70506 12.6663 2.9335 10.5781C3.16195 8.48999 4.14459 6.55699 5.69701 5.1419C7.24944 3.7268 9.26493 2.92689 11.3652 2.89229C13.4656 2.85768 15.5063 3.59075 17.1045 4.95392C18.7027 6.3171 19.7485 8.21667 20.0456 10.2961C20.3427 12.3756 19.8708 14.4921 18.7183 16.2483C17.5658 18.0045 15.812 19.2797 13.786 19.8347C11.76 20.3896 9.60118 20.1862 7.71458 19.2624L2.875 20.1249" stroke="white" stroke-width="1.5" stroke-linecap="round" stroke-linejoin="round"/>
<path d="M8.625 9.58325C8.625 9.71033 8.67548 9.83221 8.76534 9.92207C8.85521 10.0119 8.97708 10.0624 9.10417 10.0624C9.23125 10.0624 9.35313 10.0119 9.44299 9.92207C9.53285 9.83221 9.58333 9.71033 9.58333 9.58325V8.62492C9.58333 8.49784 9.53285 8.37596 9.44299 8.2861C9.35313 8.19624 9.23125 8.14575 9.10417 8.14575C8.97708 8.14575 8.85521 8.19624 8.76534 8.2861C8.67548 8.37596 8.625 8.49784 8.625 8.62492V9.58325ZM8.625 9.58325C8.625 10.8541 9.12983 12.0729 10.0284 12.9715C10.9271 13.8701 12.1458 14.3749 13.4167 14.3749H14.375C14.5021 14.3749 14.624 14.3244 14.7138 14.2346C14.8037 14.1447 14.8542 14.0228 14.8542 13.8958C14.8542 13.7687 14.8037 13.6468 14.7138 13.5569C14.624 13.4671 14.5021 13.4166 14.375 13.4166H13.4167C13.2896 13.4166 13.1677 13.4671 13.0778 13.5569C12.988 13.6468 12.9375 13.7687 12.9375 13.8958C12.9375 14.0228 12.988 14.1447 13.0778 14.2346C13.1677 14.3244 13.2896 14.3749 13.4167 14.3749" stroke="white" stroke-width="1.5" stroke-linecap="round" stroke-linejoin="round"/>
</g>
<defs>
<clipPath id="clip0_119_377">
<rect width="23" height="23" fill="white"/>
</clipPath>
</defs>
</svg>
